<svg version="1.1" xmlns="http://www.w3.org/2000/svg" viewBox="0 0 862.6523405076362 271.93408203125" width="862.6523405076362" height="271.93408203125">
  <!-- svg-source:excalidraw -->
  
  <defs>
    <style>
      @font-face {
        font-family: "Virgil";
        src: url("https://excalidraw.com/Virgil.woff2");
      }
      @font-face {
        font-family: "Cascadia";
        src: url("https://excalidraw.com/Cascadia.woff2");
      }
    </style>
  </defs>
  <g transform="translate(329.55279541015625 236.93408203125) rotate(0 42 12.5)"><text x="0" y="18" font-family="Virgil, Segoe UI Emoji" font-size="20px" fill="#000000" text-anchor="start" style="white-space: pre;" direction="ltr">Device X</text></g><g transform="translate(59.5 236.36431884765625) rotate(0 41.5 12.5)"><text x="0" y="18" font-family="Virgil, Segoe UI Emoji" font-size="20px" fill="#000000" text-anchor="start" style="white-space: pre;" direction="ltr">Device Y</text></g><g transform="translate(637.8707275390625 235) rotate(0 41.5 12.5)"><text x="0" y="18" font-family="Virgil, Segoe UI Emoji" font-size="20px" fill="#000000" text-anchor="start" style="white-space: pre;" direction="ltr">Device Y</text></g><g stroke-linecap="round" transform="translate(280.05279541015625 181.1626586914062) rotate(0 91 21)"><path d="M-1.72 0.56 C63.23 3.14, 123.96 1.47, 180.83 0.63 M-0.51 0.17 C68.66 -1.29, 137.93 -0.81, 182.92 0.03 M182.36 0.71 C181.45 12.52, 180.51 25.92, 181.59 43.17 M182.88 0.68 C181.2 17.53, 180.88 33.5, 182.52 42.11 M183.94 42.15 C127.85 41.77, 76.68 43.7, 1.29 42.6 M182.73 42.8 C138.37 42.11, 96.43 41.37, -0.26 42.85 M0.55 40.3 C-0.76 32.15, -1.25 22.42, 1.22 1.44 M1 41.78 C1.04 33.94, 0.91 24.32, -0.96 -0.17" stroke="#000000" stroke-width="1" fill="none"></path></g><g transform="translate(309.05279541015625 192.1626586914062) rotate(0 55.5 11.5)"><text x="0" y="18" font-family="Helvetica, Segoe UI Emoji" font-size="20px" fill="#000000" text-anchor="start" style="white-space: pre;" direction="ltr">Record A X1</text></g><g stroke-linecap="round" transform="translate(10 180.59289550781244) rotate(0 91 21)"><path d="M-0.91 1.06 C43.41 -0.41, 90.42 3.3, 181.01 -1.09 M0.88 0.34 C48.09 0.13, 96.39 -0.14, 181.96 0.43 M182.63 1.77 C181.05 15.57, 180.1 30.39, 180.59 42.35 M181.43 -0.65 C181.03 13.13, 180.8 26.12, 181.71 41.41 M182.2 43.69 C143.5 43.06, 101.98 41.48, -1.5 42.54 M182.3 42.15 C139.58 43.81, 96.46 42.72, 0.19 41.1 M-1.99 43.63 C-0.03 32.26, 0.39 19.38, -1.41 0.36 M0.06 41.56 C-0.25 32.18, 0.37 20.4, 0.38 -0.68" stroke="#000000" stroke-width="1" fill="none"></path></g><g transform="translate(39 191.59289550781244) rotate(0 55.5 11.5)"><text x="0" y="18" font-family="Helvetica, Segoe UI Emoji" font-size="20px" fill="#000000" text-anchor="start" style="white-space: pre;" direction="ltr">Record A Y1</text></g><g stroke-linecap="round" transform="translate(588.3707275390625 178.99999999999994) rotate(0 91 21)"><path d="M0.72 -0.95 C43.94 -1.2, 90.09 -0.1, 181.77 1.87 M-0.75 0.46 C41.52 -0.15, 83.56 -0.33, 181.26 0.45 M180.94 0.85 C180.66 8.43, 182.19 20.79, 180.55 40.68 M181.62 -0.81 C182.9 13.03, 181.95 24.97, 182.6 42.15 M181.39 40.84 C132.23 39.5, 80.69 39.52, 0.14 43.51 M181.4 42.94 C111.67 42.67, 42.41 42.9, -0.51 41.25 M-1.18 41.61 C1.06 32.07, -1.48 25.84, 0.82 0.3 M0.98 42.31 C0.58 32.86, 1.12 24.63, 0.96 0.54" stroke="#000000" stroke-width="1" fill="none"></path></g><g transform="translate(617.3707275390625 189.99999999999994) rotate(0 56.5 11.5)"><text x="0" y="18" font-family="Helvetica, Segoe UI Emoji" font-size="20px" fill="#000000" text-anchor="start" style="white-space: pre;" direction="ltr">Record B Y1</text></g><g stroke-linecap="round" transform="translate(280.05279541015625 124.60074869791663) rotate(0 91 21)"><path d="M-0.1 -0.31 C50.86 -0.73, 98.12 -2.03, 182.33 -0.13 M-0.81 -0.61 C71.61 1.05, 141.28 1.07, 181.38 0.34 M181.03 0.76 C181.99 17.06, 180.9 31.25, 181.87 42.53 M182.82 -0.47 C183.04 8.6, 181.53 17.48, 181.43 41.47 M180.96 43.98 C132.4 42.96, 85.35 42.8, -0.74 43.41 M182.01 42.85 C121.94 40.51, 62.11 41.78, -0.76 42.27 M-0.06 41.63 C2.22 24.83, 1.63 9.57, 0.1 -1.75 M-0.55 41.57 C-0.05 26.92, 0.85 12.07, 0.19 0.09" stroke="#000000" stroke-width="1" fill="none"></path></g><g transform="translate(308.59564208984375 136.05790201822913) rotate(0 56.5 11.5)"><text x="0" y="18" font-family="Helvetica, Segoe UI Emoji" font-size="20px" fill="#000000" text-anchor="start" style="white-space: pre;" direction="ltr">Record B X2</text></g><g stroke-linecap="round" transform="translate(588.3707275390625 121.89524332682288) rotate(0 91 21)"><path d="M-0.99 -1.98 C47.04 -0.01, 93.43 2.74, 180.58 0.87 M-0.17 -0.74 C48.89 -1.75, 96.67 -0.38, 181.28 0.56 M180.42 -1.14 C181.74 10.34, 180.32 16.06, 182.11 42.05 M182.89 0.2 C181.78 11.53, 182.44 24.58, 181.77 41.75 M182.55 40.05 C132.23 39.02, 83.91 42.45, 1.71 41.17 M181.86 41.32 C114.67 43.26, 45.24 42.97, -0.9 41.2 M0.72 40.88 C-1.57 31.18, 1.07 17.72, -1.97 -1.93 M0.17 41.31 C0.3 26.19, 0.55 11.83, 0.92 -0.31" stroke="#000000" stroke-width="1" fill="none"></path></g><g transform="translate(617.3707275390625 132.89524332682288) rotate(0 55.5 11.5)"><text x="0" y="18" font-family="Helvetica, Segoe UI Emoji" font-size="20px" fill="#000000" text-anchor="start" style="white-space: pre;" direction="ltr">Record A Y2</text></g><g stroke-linecap="round" transform="translate(280.2813720703125 68.26741536458331) rotate(0 91 21)"><path d="M-1.49 0.06 C43.76 0.85, 87.24 -1.1, 183.19 -1.15 M0.14 0.66 C41.59 0.1, 81.7 -1.37, 181.03 0.24 M182.08 -1.43 C183.92 8.09, 182.72 18.84, 180.93 43.25 M181.6 0.04 C182.96 11.58, 182.07 22.16, 182.43 41.92 M181.66 43.74 C140.01 42.06, 99.1 42.9, 1.18 43.75 M181.7 42.66 C123.53 41.54, 63.17 40.05, 0.64 41.61 M1.61 43.85 C-1.39 33.22, -1.85 22.6, -0.85 0.43 M-0.75 42.33 C0 25.25, 0.25 9.72, 0.91 -0.91" stroke="#000000" stroke-width="1" fill="none"></path></g><g transform="translate(309.2813720703125 79.26741536458331) rotate(0 57.5 11.5)"><text x="0" y="18" font-family="Helvetica, Segoe UI Emoji" font-size="20px" fill="#000000" text-anchor="start" style="white-space: pre;" direction="ltr">Record C X3</text></g><g stroke-linecap="round" transform="translate(588.3707275390625 66.33333333333331) rotate(0 91 21)"><path d="M0.22 -0.87 C45.76 3.68, 90.56 2.67, 181.35 -1.49 M0.18 -0.92 C62.17 1.79, 125.1 1.91, 181.07 -0.53 M181.96 1.65 C180.21 13.05, 181.78 28.8, 181.82 41.24 M181.94 -0.69 C182.98 9.36, 182.14 18.17, 181.7 41.69 M181.34 40.07 C138.12 41.73, 95.67 39.39, 1.49 40.8 M182.79 41.54 C109.73 40.01, 37.57 39.96, -0.07 41.41 M-1.81 43.47 C0.67 30.51, -2.13 16.49, 1.31 1.97 M0.71 41.54 C0.89 28.64, 0.85 13.9, 0.53 -0.62" stroke="#000000" stroke-width="1" fill="none"></path></g><g transform="translate(617.3707275390625 77.33333333333331) rotate(0 56.5 11.5)"><text x="0" y="18" font-family="Helvetica, Segoe UI Emoji" font-size="20px" fill="#000000" text-anchor="start" style="white-space: pre;" direction="ltr">Record B Y3</text></g><g stroke-linecap="round" transform="translate(588.3707275390625 10) rotate(0 91 21)"><path d="M-0.23 1.87 C35.15 1.66, 72.5 -0.7, 182.91 -0.34 M-0.74 0.45 C40.39 2.23, 81.3 1.14, 182.42 -0.79 M180.55 -1.32 C182.1 10.25, 181.81 19.65, 180.39 43.77 M182.6 0.15 C181.74 13.19, 181.67 26.57, 181.42 42.28 M182.14 43.51 C146.89 39.42, 109.85 39.05, 1.89 41.73 M181.49 41.25 C138.88 40.37, 97.49 40.58, -0.19 42.36 M0.82 42.3 C-1.59 29.81, 1.69 23.46, 0.62 0.35 M0.96 42.54 C0.62 31.97, 0.23 21.94, -0.96 -0.84" stroke="#000000" stroke-width="1" fill="none"></path></g><g transform="translate(617.3707275390625 21) rotate(0 55.5 11.5)"><text x="0" y="18" font-family="Helvetica, Segoe UI Emoji" font-size="20px" fill="#000000" text-anchor="start" style="white-space: pre;" direction="ltr">Record A Y4</text></g><g stroke-linecap="round"><g transform="translate(587.3707275390625 139.2338982027287) rotate(0 -62.37324902409688 34.352188487645776)"><path d="M-1.15 -1 C-21.95 10.56, -103.46 56.8, -124.09 68.65 M0.44 1.1 C-20.6 12.83, -104.66 58.54, -125.19 69.7" stroke="#000000" stroke-width="1" fill="none"></path></g><g transform="translate(587.3707275390625 139.2338982027287) rotate(0 -62.37324902409688 34.352188487645776)"><path d="M-106.99 46.75 C-114.12 53.12, -118.78 64.21, -124.22 69.14 M-104.5 47.27 C-112.11 55.08, -118.01 60.83, -124.57 68.72" stroke="#000000" stroke-width="1" fill="none"></path></g><g transform="translate(587.3707275390625 139.2338982027287) rotate(0 -62.37324902409688 34.352188487645776)"><path d="M-97.18 64.78 C-107.72 64.6, -115.9 69.23, -124.22 69.14 M-94.69 65.29 C-105.48 67.57, -114.43 67.72, -124.57 68.72" stroke="#000000" stroke-width="1" fill="none"></path></g></g><g stroke-linecap="round"><g transform="translate(465.55279541015625 144.93408203125) rotate(0 59.532389644300565 -28.506963998451823)"><path d="M-0.37 0.92 C19.17 -8.73, 97.64 -47.96, 117.27 -57.94 M1.64 0.36 C21.54 -9.09, 99.74 -46.67, 119.43 -56.43" stroke="#000000" stroke-width="1" fill="none"></path></g><g transform="translate(465.55279541015625 144.93408203125) rotate(0 59.532389644300565 -28.506963998451823)"><path d="M100.12 -36.6 C104.77 -42.86, 109.39 -48.17, 120.76 -54.62 M99.52 -35.25 C103.9 -39.97, 108.13 -43.71, 120.14 -57.07" stroke="#000000" stroke-width="1" fill="none"></path></g><g transform="translate(465.55279541015625 144.93408203125) rotate(0 59.532389644300565 -28.506963998451823)"><path d="M91.13 -55.05 C98.5 -55.71, 105.82 -55.45, 120.76 -54.62 M90.54 -53.7 C97.03 -54.33, 103.25 -53.98, 120.14 -57.07" stroke="#000000" stroke-width="1" fill="none"></path></g></g><g stroke-linecap="round"><g transform="translate(775.8707275390625 32) rotate(0 23.954509254042023 57.90206903633097)"><path d="M0.53 -0.81 C8.78 8.52, 48.54 37.81, 48.56 57.15 C48.58 76.49, 8.96 105.54, 0.67 115.26 M-0.65 1.38 C7.57 11.35, 47.75 39.04, 47.91 58.24 C48.06 77.45, 8.5 106.87, 0.26 116.61" stroke="#000000" stroke-width="1" fill="none"></path></g><g transform="translate(775.8707275390625 32) rotate(0 23.954509254042023 57.90206903633097)"><path d="M12.27 90.68 C9.49 96.9, 8.07 99.83, 0.72 115.87 M13.61 89.05 C7.84 100.8, 2.65 111.36, -0.7 116.15" stroke="#000000" stroke-width="1" fill="none"></path></g><g transform="translate(775.8707275390625 32) rotate(0 23.954509254042023 57.90206903633097)"><path d="M26.41 105.54 C20.35 108.52, 15.78 108.16, 0.72 115.87 M27.76 103.92 C16.3 109.81, 5.53 114.52, -0.7 116.15" stroke="#000000" stroke-width="1" fill="none"></path></g></g><g stroke-linecap="round"><g transform="translate(773.8707275390625 84.5428466796875) rotate(0 24.106005638465263 60.04003451993688)"><path d="M-0.74 -0.92 C7.32 11.35, 48.86 54, 48.95 74.12 C49.04 94.24, 8.29 112.15, -0.2 119.79 M1.08 1.21 C8.92 13.56, 48.25 55.23, 47.97 75.19 C47.7 95.16, 7.83 113.36, -0.55 121" stroke="#000000" stroke-width="1" fill="none"></path></g><g transform="translate(773.8707275390625 84.5428466796875) rotate(0 24.106005638465263 60.04003451993688)"><path d="M15.59 96.68 C9.57 106.47, 4.51 111.96, -0.61 120.34 M16.46 97.54 C10.3 104.61, 4.54 115.16, -1.12 120.85" stroke="#000000" stroke-width="1" fill="none"></path></g><g transform="translate(773.8707275390625 84.5428466796875) rotate(0 24.106005638465263 60.04003451993688)"><path d="M27.04 113.71 C16.94 117.47, 7.87 117, -0.61 120.34 M27.91 114.57 C17.71 115.43, 7.79 119.81, -1.12 120.85" stroke="#000000" stroke-width="1" fill="none"></path></g></g><g transform="translate(486.7617206233034 101.28885108845907) rotate(335.12240519654773 24 9)"><text x="0" y="14" font-family="Helvetica, Segoe UI Emoji" font-size="16px" fill="#000000" text-anchor="start" style="white-space: pre;" direction="ltr">link Y3</text></g><g transform="translate(501.2059651098225 149.79928403080964) rotate(330.05020965889264 24 9)"><text x="0" y="14" font-family="Helvetica, Segoe UI Emoji" font-size="16px" fill="#000000" text-anchor="start" style="white-space: pre;" direction="ltr">link X1</text></g><g transform="translate(799.1356271007821 47.90339192773558) rotate(50.49911412041399 24 9)"><text x="0" y="14" font-family="Helvetica, Segoe UI Emoji" font-size="16px" fill="#000000" text-anchor="start" style="white-space: pre;" direction="ltr">link Y2</text></g><g transform="translate(808.1698013724001 133.70172602246373) rotate(57.51180467409881 24 9)"><text x="0" y="14" font-family="Helvetica, Segoe UI Emoji" font-size="16px" fill="#000000" text-anchor="start" style="white-space: pre;" direction="ltr">link Y1</text></g><g stroke-linecap="round"><g transform="translate(194.27431745517413 202.03155517578125) rotate(0 42.51206201992929 0.3459575999897879)"><path d="M0.86 0.47 C14.6 0.54, 69.19 1.37, 82.99 1.15 M-0.14 -0.33 C13.9 -0.63, 71.35 -0.44, 85.16 -0.38" stroke="#000000" stroke-width="1" fill="none"></path></g><g transform="translate(194.27431745517413 202.03155517578125) rotate(0 42.51206201992929 0.3459575999897879)"><path d="M57.72 8.07 C68.59 5.46, 75.09 3.68, 84.58 -1.6 M57.53 9.31 C66.3 7.37, 75.01 3.45, 84.91 0.17" stroke="#000000" stroke-width="1" fill="none"></path></g><g transform="translate(194.27431745517413 202.03155517578125) rotate(0 42.51206201992929 0.3459575999897879)"><path d="M57.78 -12.45 C68.75 -7.9, 75.23 -2.53, 84.58 -1.6 M57.59 -11.21 C66.21 -6.61, 74.9 -3.99, 84.91 0.17" stroke="#000000" stroke-width="1" fill="none"></path></g></g><g transform="translate(203.18123884189288 180.64874267578125) rotate(0 24 9)"><text x="0" y="14" font-family="Helvetica, Segoe UI Emoji" font-size="16px" fill="#000000" text-anchor="start" style="white-space: pre;" direction="ltr">link X1</text></g></svg>