<svg version="1.1" xmlns="http://www.w3.org/2000/svg" viewBox="0 0 356 361.5" width="356" height="361.5">
  <!-- svg-source:excalidraw -->
  
  <defs>
    <style>
      @font-face {
        font-family: "Virgil";
        src: url("https://excalidraw.com/Virgil.woff2");
      }
      @font-face {
        font-family: "Cascadia";
        src: url("https://excalidraw.com/Cascadia.woff2");
      }
    </style>
  </defs>
  <g stroke-linecap="round" transform="translate(10 10) rotate(0 168 69.5)"><path d="M-1.07 -1.27 C132.58 -1.54, 263.61 -2.66, 335.38 0.33 M0.33 -0.6 C72.27 -1.03, 143.62 -0.77, 335.53 -0.66 M335 -1.35 C336.62 29.2, 337.41 63.81, 336.78 138.03 M335.11 -0.28 C335.75 53.7, 335.87 106.7, 335.25 138.88 M336.26 138.46 C224.29 135.9, 113.69 136.02, -0.04 138.75 M335.95 139.51 C238.67 138.11, 141.13 136.84, 0.06 139.51 M-1.29 137.62 C-0.39 92.93, 0.16 45.07, -1.11 0.78 M-0.12 139.55 C1.65 93.27, -0.28 47.09, 0.14 -0.74" stroke="#000000" stroke-width="2" fill="none"></path></g><g stroke-linecap="round" transform="translate(258 58.5) rotate(0 32 32)"><path d="M32 0 C38.5 -0.41, 47.28 3.06, 52.52 7.45 C57.77 11.84, 62.28 19.59, 63.49 26.33 C64.71 33.06, 63.19 41.9, 59.8 47.85 C56.41 53.79, 49.58 59.6, 43.17 61.99 C36.76 64.38, 27.78 64.45, 21.33 62.17 C14.88 59.89, 7.95 54.19, 4.47 48.31 C0.98 42.42, -0.68 33.6, 0.42 26.85 C1.52 20.1, 5.9 12.27, 11.07 7.79 C16.25 3.32, 27.98 1.3, 31.47 0 C34.96 -1.29, 31.91 -0.11, 32 0 C32.09 0.11, 32 0.11, 32 0.64 M32 0 C38.5 -0.41, 47.28 3.06, 52.52 7.45 C57.77 11.84, 62.28 19.59, 63.49 26.33 C64.71 33.06, 63.19 41.9, 59.8 47.85 C56.41 53.79, 49.58 59.6, 43.17 61.99 C36.76 64.38, 27.78 64.45, 21.33 62.17 C14.88 59.89, 7.95 54.19, 4.47 48.31 C0.98 42.42, -0.68 33.6, 0.42 26.85 C1.52 20.1, 5.9 12.27, 11.07 7.79 C16.25 3.32, 27.98 1.3, 31.47 0 C34.96 -1.29, 31.91 -0.11, 32 0 C32.09 0.11, 32 0.11, 32 0.64" stroke="none" stroke-width="0" fill="#000000"></path><path d="M32 0 C38.5 -0.41, 47.28 3.06, 52.52 7.45 C57.77 11.84, 62.28 19.59, 63.49 26.33 C64.71 33.06, 63.19 41.9, 59.8 47.85 C56.41 53.79, 49.58 59.6, 43.17 61.99 C36.76 64.38, 27.78 64.45, 21.33 62.17 C14.88 59.89, 7.95 54.19, 4.47 48.31 C0.98 42.42, -0.68 33.6, 0.42 26.85 C1.52 20.1, 5.9 12.27, 11.07 7.79 C16.25 3.32, 27.98 1.3, 31.47 0 C34.96 -1.29, 31.91 -0.11, 32 0 C32.09 0.11, 32 0.11, 32 0.64 M32 0 C38.5 -0.41, 47.28 3.06, 52.52 7.45 C57.77 11.84, 62.28 19.59, 63.49 26.33 C64.71 33.06, 63.19 41.9, 59.8 47.85 C56.41 53.79, 49.58 59.6, 43.17 61.99 C36.76 64.38, 27.78 64.45, 21.33 62.17 C14.88 59.89, 7.95 54.19, 4.47 48.31 C0.98 42.42, -0.68 33.6, 0.42 26.85 C1.52 20.1, 5.9 12.27, 11.07 7.79 C16.25 3.32, 27.98 1.3, 31.47 0 C34.96 -1.29, 31.91 -0.11, 32 0 C32.09 0.11, 32 0.11, 32 0.64" stroke="#000000" stroke-width="1" fill="none"></path></g><g transform="translate(268 79) rotate(0 22 11.5)"><text x="22" y="18" font-family="Helvetica, Segoe UI Emoji" font-size="20px" fill="#ffffff" text-anchor="middle" style="white-space: pre;" direction="ltr">C.X3</text></g><g stroke-linecap="round" transform="translate(45 58.5) rotate(0 32 32)"><path d="M32 0 C38.5 -0.41, 47.28 3.06, 52.52 7.45 C57.77 11.84, 62.28 19.59, 63.49 26.33 C64.71 33.06, 63.19 41.9, 59.8 47.85 C56.41 53.79, 49.58 59.6, 43.17 61.99 C36.76 64.38, 27.78 64.45, 21.33 62.17 C14.88 59.89, 7.95 54.19, 4.47 48.31 C0.98 42.42, -0.68 33.6, 0.42 26.85 C1.52 20.1, 5.9 12.27, 11.07 7.79 C16.25 3.32, 27.98 1.3, 31.47 0 C34.96 -1.29, 31.91 -0.11, 32 0 C32.09 0.11, 32 0.11, 32 0.64 M32 0 C38.5 -0.41, 47.28 3.06, 52.52 7.45 C57.77 11.84, 62.28 19.59, 63.49 26.33 C64.71 33.06, 63.19 41.9, 59.8 47.85 C56.41 53.79, 49.58 59.6, 43.17 61.99 C36.76 64.38, 27.78 64.45, 21.33 62.17 C14.88 59.89, 7.95 54.19, 4.47 48.31 C0.98 42.42, -0.68 33.6, 0.42 26.85 C1.52 20.1, 5.9 12.27, 11.07 7.79 C16.25 3.32, 27.98 1.3, 31.47 0 C34.96 -1.29, 31.91 -0.11, 32 0 C32.09 0.11, 32 0.11, 32 0.64" stroke="none" stroke-width="0" fill="#000000"></path><path d="M32 0 C38.5 -0.41, 47.28 3.06, 52.52 7.45 C57.77 11.84, 62.28 19.59, 63.49 26.33 C64.71 33.06, 63.19 41.9, 59.8 47.85 C56.41 53.79, 49.58 59.6, 43.17 61.99 C36.76 64.38, 27.78 64.45, 21.33 62.17 C14.88 59.89, 7.95 54.19, 4.47 48.31 C0.98 42.42, -0.68 33.6, 0.42 26.85 C1.52 20.1, 5.9 12.27, 11.07 7.79 C16.25 3.32, 27.98 1.3, 31.47 0 C34.96 -1.29, 31.91 -0.11, 32 0 C32.09 0.11, 32 0.11, 32 0.64 M32 0 C38.5 -0.41, 47.28 3.06, 52.52 7.45 C57.77 11.84, 62.28 19.59, 63.49 26.33 C64.71 33.06, 63.19 41.9, 59.8 47.85 C56.41 53.79, 49.58 59.6, 43.17 61.99 C36.76 64.38, 27.78 64.45, 21.33 62.17 C14.88 59.89, 7.95 54.19, 4.47 48.31 C0.98 42.42, -0.68 33.6, 0.42 26.85 C1.52 20.1, 5.9 12.27, 11.07 7.79 C16.25 3.32, 27.98 1.3, 31.47 0 C34.96 -1.29, 31.91 -0.11, 32 0 C32.09 0.11, 32 0.11, 32 0.64" stroke="#000000" stroke-width="1" fill="none"></path></g><g transform="translate(54 78) rotate(0 21.5 11.5)"><text x="21.5" y="18" font-family="Helvetica, Segoe UI Emoji" font-size="20px" fill="#ffffff" text-anchor="middle" style="white-space: pre;" direction="ltr">A.Y4</text></g><g stroke-linecap="round" transform="translate(45 172) rotate(0 32 32)"><path d="M32 0 C38.5 -0.41, 47.28 3.06, 52.52 7.45 C57.77 11.84, 62.28 19.59, 63.49 26.33 C64.71 33.06, 63.19 41.9, 59.8 47.85 C56.41 53.79, 49.58 59.6, 43.17 61.99 C36.76 64.38, 27.78 64.45, 21.33 62.17 C14.88 59.89, 7.95 54.19, 4.47 48.31 C0.98 42.42, -0.68 33.6, 0.42 26.85 C1.52 20.1, 5.9 12.27, 11.07 7.79 C16.25 3.32, 27.98 1.3, 31.47 0 C34.96 -1.29, 31.91 -0.11, 32 0 C32.09 0.11, 32 0.11, 32 0.64 M32 0 C38.5 -0.41, 47.28 3.06, 52.52 7.45 C57.77 11.84, 62.28 19.59, 63.49 26.33 C64.71 33.06, 63.19 41.9, 59.8 47.85 C56.41 53.79, 49.58 59.6, 43.17 61.99 C36.76 64.38, 27.78 64.45, 21.33 62.17 C14.88 59.89, 7.95 54.19, 4.47 48.31 C0.98 42.42, -0.68 33.6, 0.42 26.85 C1.52 20.1, 5.9 12.27, 11.07 7.79 C16.25 3.32, 27.98 1.3, 31.47 0 C34.96 -1.29, 31.91 -0.11, 32 0 C32.09 0.11, 32 0.11, 32 0.64" stroke="none" stroke-width="0" fill="#000000"></path><path d="M32 0 C38.5 -0.41, 47.28 3.06, 52.52 7.45 C57.77 11.84, 62.28 19.59, 63.49 26.33 C64.71 33.06, 63.19 41.9, 59.8 47.85 C56.41 53.79, 49.58 59.6, 43.17 61.99 C36.76 64.38, 27.78 64.45, 21.33 62.17 C14.88 59.89, 7.95 54.19, 4.47 48.31 C0.98 42.42, -0.68 33.6, 0.42 26.85 C1.52 20.1, 5.9 12.27, 11.07 7.79 C16.25 3.32, 27.98 1.3, 31.47 0 C34.96 -1.29, 31.91 -0.11, 32 0 C32.09 0.11, 32 0.11, 32 0.64 M32 0 C38.5 -0.41, 47.28 3.06, 52.52 7.45 C57.77 11.84, 62.28 19.59, 63.49 26.33 C64.71 33.06, 63.19 41.9, 59.8 47.85 C56.41 53.79, 49.58 59.6, 43.17 61.99 C36.76 64.38, 27.78 64.45, 21.33 62.17 C14.88 59.89, 7.95 54.19, 4.47 48.31 C0.98 42.42, -0.68 33.6, 0.42 26.85 C1.52 20.1, 5.9 12.27, 11.07 7.79 C16.25 3.32, 27.98 1.3, 31.47 0 C34.96 -1.29, 31.91 -0.11, 32 0 C32.09 0.11, 32 0.11, 32 0.64" stroke="#000000" stroke-width="1" fill="none"></path></g><g transform="translate(53.0428466796875 192.414306640625) rotate(0 21.5 11.5)"><text x="21.5" y="18" font-family="Helvetica, Segoe UI Emoji" font-size="20px" fill="#ffffff" text-anchor="middle" style="white-space: pre;" direction="ltr">A.Y2</text></g><g stroke-linecap="round" transform="translate(44 287.5) rotate(0 32 32)"><path d="M32 0 C38.5 -0.41, 47.28 3.06, 52.52 7.45 C57.77 11.84, 62.28 19.59, 63.49 26.33 C64.71 33.06, 63.19 41.9, 59.8 47.85 C56.41 53.79, 49.58 59.6, 43.17 61.99 C36.76 64.38, 27.78 64.45, 21.33 62.17 C14.88 59.89, 7.95 54.19, 4.47 48.31 C0.98 42.42, -0.68 33.6, 0.42 26.85 C1.52 20.1, 5.9 12.27, 11.07 7.79 C16.25 3.32, 27.98 1.3, 31.47 0 C34.96 -1.29, 31.91 -0.11, 32 0 C32.09 0.11, 32 0.11, 32 0.64 M32 0 C38.5 -0.41, 47.28 3.06, 52.52 7.45 C57.77 11.84, 62.28 19.59, 63.49 26.33 C64.71 33.06, 63.19 41.9, 59.8 47.85 C56.41 53.79, 49.58 59.6, 43.17 61.99 C36.76 64.38, 27.78 64.45, 21.33 62.17 C14.88 59.89, 7.95 54.19, 4.47 48.31 C0.98 42.42, -0.68 33.6, 0.42 26.85 C1.52 20.1, 5.9 12.27, 11.07 7.79 C16.25 3.32, 27.98 1.3, 31.47 0 C34.96 -1.29, 31.91 -0.11, 32 0 C32.09 0.11, 32 0.11, 32 0.64" stroke="none" stroke-width="0" fill="#000000"></path><path d="M32 0 C38.5 -0.41, 47.28 3.06, 52.52 7.45 C57.77 11.84, 62.28 19.59, 63.49 26.33 C64.71 33.06, 63.19 41.9, 59.8 47.85 C56.41 53.79, 49.58 59.6, 43.17 61.99 C36.76 64.38, 27.78 64.45, 21.33 62.17 C14.88 59.89, 7.95 54.19, 4.47 48.31 C0.98 42.42, -0.68 33.6, 0.42 26.85 C1.52 20.1, 5.9 12.27, 11.07 7.79 C16.25 3.32, 27.98 1.3, 31.47 0 C34.96 -1.29, 31.91 -0.11, 32 0 C32.09 0.11, 32 0.11, 32 0.64 M32 0 C38.5 -0.41, 47.28 3.06, 52.52 7.45 C57.77 11.84, 62.28 19.59, 63.49 26.33 C64.71 33.06, 63.19 41.9, 59.8 47.85 C56.41 53.79, 49.58 59.6, 43.17 61.99 C36.76 64.38, 27.78 64.45, 21.33 62.17 C14.88 59.89, 7.95 54.19, 4.47 48.31 C0.98 42.42, -0.68 33.6, 0.42 26.85 C1.52 20.1, 5.9 12.27, 11.07 7.79 C16.25 3.32, 27.98 1.3, 31.47 0 C34.96 -1.29, 31.91 -0.11, 32 0 C32.09 0.11, 32 0.11, 32 0.64" stroke="#000000" stroke-width="1" fill="none"></path></g><g transform="translate(57 307) rotate(0 21.5 11.5)"><text x="21.5" y="18" font-family="Helvetica, Segoe UI Emoji" font-size="20px" fill="#ffffff" text-anchor="middle" style="white-space: pre;" direction="ltr">A.X1</text></g><g stroke-linecap="round" transform="translate(152 58.5) rotate(0 32 32)"><path d="M32 0 C38.5 -0.41, 47.28 3.06, 52.52 7.45 C57.77 11.84, 62.28 19.59, 63.49 26.33 C64.71 33.06, 63.19 41.9, 59.8 47.85 C56.41 53.79, 49.58 59.6, 43.17 61.99 C36.76 64.38, 27.78 64.45, 21.33 62.17 C14.88 59.89, 7.95 54.19, 4.47 48.31 C0.98 42.42, -0.68 33.6, 0.42 26.85 C1.52 20.1, 5.9 12.27, 11.07 7.79 C16.25 3.32, 27.98 1.3, 31.47 0 C34.96 -1.29, 31.91 -0.11, 32 0 C32.09 0.11, 32 0.11, 32 0.64 M32 0 C38.5 -0.41, 47.28 3.06, 52.52 7.45 C57.77 11.84, 62.28 19.59, 63.49 26.33 C64.71 33.06, 63.19 41.9, 59.8 47.85 C56.41 53.79, 49.58 59.6, 43.17 61.99 C36.76 64.38, 27.78 64.45, 21.33 62.17 C14.88 59.89, 7.95 54.19, 4.47 48.31 C0.98 42.42, -0.68 33.6, 0.42 26.85 C1.52 20.1, 5.9 12.27, 11.07 7.79 C16.25 3.32, 27.98 1.3, 31.47 0 C34.96 -1.29, 31.91 -0.11, 32 0 C32.09 0.11, 32 0.11, 32 0.64" stroke="none" stroke-width="0" fill="#000000"></path><path d="M32 0 C38.5 -0.41, 47.28 3.06, 52.52 7.45 C57.77 11.84, 62.28 19.59, 63.49 26.33 C64.71 33.06, 63.19 41.9, 59.8 47.85 C56.41 53.79, 49.58 59.6, 43.17 61.99 C36.76 64.38, 27.78 64.45, 21.33 62.17 C14.88 59.89, 7.95 54.19, 4.47 48.31 C0.98 42.42, -0.68 33.6, 0.42 26.85 C1.52 20.1, 5.9 12.27, 11.07 7.79 C16.25 3.32, 27.98 1.3, 31.47 0 C34.96 -1.29, 31.91 -0.11, 32 0 C32.09 0.11, 32 0.11, 32 0.64 M32 0 C38.5 -0.41, 47.28 3.06, 52.52 7.45 C57.77 11.84, 62.28 19.59, 63.49 26.33 C64.71 33.06, 63.19 41.9, 59.8 47.85 C56.41 53.79, 49.58 59.6, 43.17 61.99 C36.76 64.38, 27.78 64.45, 21.33 62.17 C14.88 59.89, 7.95 54.19, 4.47 48.31 C0.98 42.42, -0.68 33.6, 0.42 26.85 C1.52 20.1, 5.9 12.27, 11.07 7.79 C16.25 3.32, 27.98 1.3, 31.47 0 C34.96 -1.29, 31.91 -0.11, 32 0 C32.09 0.11, 32 0.11, 32 0.64" stroke="#000000" stroke-width="1" fill="none"></path></g><g transform="translate(162.5 79.3714599609375) rotate(0 21.5 11.5)"><text x="21.5" y="18" font-family="Helvetica, Segoe UI Emoji" font-size="20px" fill="#ffffff" text-anchor="middle" style="white-space: pre;" direction="ltr">B.X2</text></g><g stroke-linecap="round" transform="translate(152 172) rotate(0 32 32)"><path d="M32 0 C38.5 -0.41, 47.28 3.06, 52.52 7.45 C57.77 11.84, 62.28 19.59, 63.49 26.33 C64.71 33.06, 63.19 41.9, 59.8 47.85 C56.41 53.79, 49.58 59.6, 43.17 61.99 C36.76 64.38, 27.78 64.45, 21.33 62.17 C14.88 59.89, 7.95 54.19, 4.47 48.31 C0.98 42.42, -0.68 33.6, 0.42 26.85 C1.52 20.1, 5.9 12.27, 11.07 7.79 C16.25 3.32, 27.98 1.3, 31.47 0 C34.96 -1.29, 31.91 -0.11, 32 0 C32.09 0.11, 32 0.11, 32 0.64 M32 0 C38.5 -0.41, 47.28 3.06, 52.52 7.45 C57.77 11.84, 62.28 19.59, 63.49 26.33 C64.71 33.06, 63.19 41.9, 59.8 47.85 C56.41 53.79, 49.58 59.6, 43.17 61.99 C36.76 64.38, 27.78 64.45, 21.33 62.17 C14.88 59.89, 7.95 54.19, 4.47 48.31 C0.98 42.42, -0.68 33.6, 0.42 26.85 C1.52 20.1, 5.9 12.27, 11.07 7.79 C16.25 3.32, 27.98 1.3, 31.47 0 C34.96 -1.29, 31.91 -0.11, 32 0 C32.09 0.11, 32 0.11, 32 0.64" stroke="none" stroke-width="0" fill="#000000"></path><path d="M32 0 C38.5 -0.41, 47.28 3.06, 52.52 7.45 C57.77 11.84, 62.28 19.59, 63.49 26.33 C64.71 33.06, 63.19 41.9, 59.8 47.85 C56.41 53.79, 49.58 59.6, 43.17 61.99 C36.76 64.38, 27.78 64.45, 21.33 62.17 C14.88 59.89, 7.95 54.19, 4.47 48.31 C0.98 42.42, -0.68 33.6, 0.42 26.85 C1.52 20.1, 5.9 12.27, 11.07 7.79 C16.25 3.32, 27.98 1.3, 31.47 0 C34.96 -1.29, 31.91 -0.11, 32 0 C32.09 0.11, 32 0.11, 32 0.64 M32 0 C38.5 -0.41, 47.28 3.06, 52.52 7.45 C57.77 11.84, 62.28 19.59, 63.49 26.33 C64.71 33.06, 63.19 41.9, 59.8 47.85 C56.41 53.79, 49.58 59.6, 43.17 61.99 C36.76 64.38, 27.78 64.45, 21.33 62.17 C14.88 59.89, 7.95 54.19, 4.47 48.31 C0.98 42.42, -0.68 33.6, 0.42 26.85 C1.52 20.1, 5.9 12.27, 11.07 7.79 C16.25 3.32, 27.98 1.3, 31.47 0 C34.96 -1.29, 31.91 -0.11, 32 0 C32.09 0.11, 32 0.11, 32 0.64" stroke="#000000" stroke-width="1" fill="none"></path></g><g transform="translate(162.5 192.414306640625) rotate(0 21.5 11.5)"><text x="21.5" y="18" font-family="Helvetica, Segoe UI Emoji" font-size="20px" fill="#ffffff" text-anchor="middle" style="white-space: pre;" direction="ltr">B.Y3</text></g><g stroke-linecap="round" transform="translate(151 287.5) rotate(0 32 32)"><path d="M32 0 C38.5 -0.41, 47.28 3.06, 52.52 7.45 C57.77 11.84, 62.28 19.59, 63.49 26.33 C64.71 33.06, 63.19 41.9, 59.8 47.85 C56.41 53.79, 49.58 59.6, 43.17 61.99 C36.76 64.38, 27.78 64.45, 21.33 62.17 C14.88 59.89, 7.95 54.19, 4.47 48.31 C0.98 42.42, -0.68 33.6, 0.42 26.85 C1.52 20.1, 5.9 12.27, 11.07 7.79 C16.25 3.32, 27.98 1.3, 31.47 0 C34.96 -1.29, 31.91 -0.11, 32 0 C32.09 0.11, 32 0.11, 32 0.64 M32 0 C38.5 -0.41, 47.28 3.06, 52.52 7.45 C57.77 11.84, 62.28 19.59, 63.49 26.33 C64.71 33.06, 63.19 41.9, 59.8 47.85 C56.41 53.79, 49.58 59.6, 43.17 61.99 C36.76 64.38, 27.78 64.45, 21.33 62.17 C14.88 59.89, 7.95 54.19, 4.47 48.31 C0.98 42.42, -0.68 33.6, 0.42 26.85 C1.52 20.1, 5.9 12.27, 11.07 7.79 C16.25 3.32, 27.98 1.3, 31.47 0 C34.96 -1.29, 31.91 -0.11, 32 0 C32.09 0.11, 32 0.11, 32 0.64" stroke="none" stroke-width="0" fill="#000000"></path><path d="M32 0 C38.5 -0.41, 47.28 3.06, 52.52 7.45 C57.77 11.84, 62.28 19.59, 63.49 26.33 C64.71 33.06, 63.19 41.9, 59.8 47.85 C56.41 53.79, 49.58 59.6, 43.17 61.99 C36.76 64.38, 27.78 64.45, 21.33 62.17 C14.88 59.89, 7.95 54.19, 4.47 48.31 C0.98 42.42, -0.68 33.6, 0.42 26.85 C1.52 20.1, 5.9 12.27, 11.07 7.79 C16.25 3.32, 27.98 1.3, 31.47 0 C34.96 -1.29, 31.91 -0.11, 32 0 C32.09 0.11, 32 0.11, 32 0.64 M32 0 C38.5 -0.41, 47.28 3.06, 52.52 7.45 C57.77 11.84, 62.28 19.59, 63.49 26.33 C64.71 33.06, 63.19 41.9, 59.8 47.85 C56.41 53.79, 49.58 59.6, 43.17 61.99 C36.76 64.38, 27.78 64.45, 21.33 62.17 C14.88 59.89, 7.95 54.19, 4.47 48.31 C0.98 42.42, -0.68 33.6, 0.42 26.85 C1.52 20.1, 5.9 12.27, 11.07 7.79 C16.25 3.32, 27.98 1.3, 31.47 0 C34.96 -1.29, 31.91 -0.11, 32 0 C32.09 0.11, 32 0.11, 32 0.64" stroke="#000000" stroke-width="1" fill="none"></path></g><g transform="translate(161.5 308) rotate(0 21.5 11.5)"><text x="21.5" y="18" font-family="Helvetica, Segoe UI Emoji" font-size="20px" fill="#ffffff" text-anchor="middle" style="white-space: pre;" direction="ltr">B.Y1</text></g><g stroke-linecap="round"><g transform="translate(76.33677638415361 237.00848579434364) rotate(0 -0.825043174425673 24.75882881905875)"><path d="M0 0 C-0.28 8.25, -1.38 41.26, -1.65 49.52 M0 0 C-0.28 8.25, -1.38 41.26, -1.65 49.52" stroke="#000000" stroke-width="2" fill="none"></path></g><g transform="translate(76.33677638415361 237.00848579434364) rotate(0 -0.825043174425673 24.75882881905875)"><path d="M-9.34 25.97 C-7.42 31.86, -5.49 37.75, -1.65 49.52 M-9.34 25.97 C-7.05 32.99, -4.76 40, -1.65 49.52" stroke="#000000" stroke-width="2" fill="none"></path></g><g transform="translate(76.33677638415361 237.00848579434364) rotate(0 -0.825043174425673 24.75882881905875)"><path d="M7.59 26.53 C5.28 32.28, 2.97 38.03, -1.65 49.52 M7.59 26.53 C4.84 33.38, 2.09 40.23, -1.65 49.52" stroke="#000000" stroke-width="2" fill="none"></path></g></g><g transform="translate(96 21) rotate(0 84.5 12.5)"><text x="0" y="18" font-family="Virgil, Segoe UI Emoji" font-size="20px" fill="#000000" text-anchor="start" style="white-space: pre;" direction="ltr">Materialized view</text></g><g stroke-linecap="round"><g transform="translate(78 125) rotate(0 0.13346031200194375 22.568920069187868)"><path d="M0.6 -0.98 C0.79 6.65, 0.86 38.27, 0.78 46.11 M-0.55 1.13 C-0.41 8.41, 0.25 37.38, 0.24 44.58" stroke="#000000" stroke-width="2" fill="none"></path></g><g transform="translate(78 125) rotate(0 0.13346031200194375 22.568920069187868)"><path d="M-9.34 24.83 C-3.66 29.32, -1.6 35.99, 2.07 45.8 M-8.51 22.9 C-6.37 29.6, -4.05 33.66, 0.25 44.73" stroke="#000000" stroke-width="2" fill="none"></path></g><g transform="translate(78 125) rotate(0 0.13346031200194375 22.568920069187868)"><path d="M6.05 24.64 C7.59 29.26, 5.51 35.98, 2.07 45.8 M6.88 22.7 C5.09 29.49, 3.47 33.6, 0.25 44.73" stroke="#000000" stroke-width="2" fill="none"></path></g></g><g stroke-linecap="round"><g transform="translate(185 126) rotate(0 -0.7406629424360744 22.217990734847263)"><path d="M0.06 0.87 C-0.24 7.87, -0.68 35.81, -1.05 42.75 M-1.37 0.28 C-1.81 7.4, -1.23 36.94, -1.5 44.16" stroke="#000000" stroke-width="2" fill="none"></path></g><g transform="translate(185 126) rotate(0 -0.7406629424360744 22.217990734847263)"><path d="M-7.29 25.48 C-6.42 30.97, -4.2 36.91, -2.71 44.7 M-9.66 23.65 C-7.11 30.82, -3.58 37.34, -0.58 44.58" stroke="#000000" stroke-width="2" fill="none"></path></g><g transform="translate(185 126) rotate(0 -0.7406629424360744 22.217990734847263)"><path d="M7.43 25.56 C2.99 31.03, -0.11 36.94, -2.71 44.7 M5.07 23.73 C3 30.97, 1.92 37.46, -0.58 44.58" stroke="#000000" stroke-width="2" fill="none"></path></g></g><g stroke-linecap="round"><g transform="translate(184 238) rotate(0 -0.8917225756356402 23.42347758798394)"><path d="M-0.18 -0.81 C-0.16 6.75, -0.07 38.65, -0.05 46.42 M-1.74 1.37 C-1.77 9.61, -0.74 40.13, -0.49 47.66" stroke="#000000" stroke-width="2" fill="none"></path></g><g transform="translate(184 238) rotate(0 -0.8917225756356402 23.42347758798394)"><path d="M-10.6 27.43 C-7.53 33.67, -6.01 37.38, -1.98 45.86 M-10.08 26.78 C-6.09 31.88, -5.62 36.19, -0.65 47.02" stroke="#000000" stroke-width="2" fill="none"></path></g><g transform="translate(184 238) rotate(0 -0.8917225756356402 23.42347758798394)"><path d="M5.47 26.91 C3.98 33.27, 0.94 37.13, -1.98 45.86 M5.99 26.25 C5.89 31.4, 2.27 35.85, -0.65 47.02" stroke="#000000" stroke-width="2" fill="none"></path></g></g></svg>