<svg version="1.1" xmlns="http://www.w3.org/2000/svg" viewBox="0 0 424.6607666015625 360.39508056640625" width="424.6607666015625" height="360.39508056640625">
  <!-- svg-source:excalidraw -->
  
  <defs>
    <style>
      @font-face {
        font-family: "Virgil";
        src: url("https://excalidraw.com/Virgil.woff2");
      }
      @font-face {
        font-family: "Cascadia";
        src: url("https://excalidraw.com/Cascadia.woff2");
      }
    </style>
  </defs>
  <g stroke-linecap="round" transform="translate(10 10) rotate(0 202.33038330078125 68.4376220703125)"><path d="M-0.89 -1.06 C159.53 -1.61, 317.77 -2.54, 404.14 0.27 M0.28 -0.5 C86.81 -0.98, 172.85 -0.76, 404.27 -0.54 M403.66 -1.35 C405.27 28.73, 406.07 62.87, 405.44 135.9 M403.77 -0.28 C404.42 52.88, 404.53 105.06, 403.91 136.75 M404.87 136.42 C270.1 133.93, 136.44 134.03, -0.03 136.67 M404.62 137.3 C287.33 135.88, 169.82 134.82, 0.05 137.3 M-1.29 135.49 C-0.38 91.51, 0.17 44.36, -1.11 0.78 M-0.12 137.43 C1.64 91.84, -0.29 46.36, 0.14 -0.74" stroke="#000000" stroke-width="2" fill="none"></path></g><g stroke-linecap="round" transform="translate(329.6322021484375 56.14666748046875) rotate(0 32 32)"><path d="M32 0 C38.5 -0.41, 47.28 3.06, 52.52 7.45 C57.77 11.84, 62.28 19.59, 63.49 26.33 C64.71 33.06, 63.19 41.9, 59.8 47.85 C56.41 53.79, 49.58 59.6, 43.17 61.99 C36.76 64.38, 27.78 64.45, 21.33 62.17 C14.88 59.89, 7.95 54.19, 4.47 48.31 C0.98 42.42, -0.68 33.6, 0.42 26.85 C1.52 20.1, 5.9 12.27, 11.07 7.79 C16.25 3.32, 27.98 1.3, 31.47 0 C34.96 -1.29, 31.91 -0.11, 32 0 C32.09 0.11, 32 0.11, 32 0.64 M32 0 C38.5 -0.41, 47.28 3.06, 52.52 7.45 C57.77 11.84, 62.28 19.59, 63.49 26.33 C64.71 33.06, 63.19 41.9, 59.8 47.85 C56.41 53.79, 49.58 59.6, 43.17 61.99 C36.76 64.38, 27.78 64.45, 21.33 62.17 C14.88 59.89, 7.95 54.19, 4.47 48.31 C0.98 42.42, -0.68 33.6, 0.42 26.85 C1.52 20.1, 5.9 12.27, 11.07 7.79 C16.25 3.32, 27.98 1.3, 31.47 0 C34.96 -1.29, 31.91 -0.11, 32 0 C32.09 0.11, 32 0.11, 32 0.64" stroke="none" stroke-width="0" fill="#000000"></path><path d="M32 0 C38.5 -0.41, 47.28 3.06, 52.52 7.45 C57.77 11.84, 62.28 19.59, 63.49 26.33 C64.71 33.06, 63.19 41.9, 59.8 47.85 C56.41 53.79, 49.58 59.6, 43.17 61.99 C36.76 64.38, 27.78 64.45, 21.33 62.17 C14.88 59.89, 7.95 54.19, 4.47 48.31 C0.98 42.42, -0.68 33.6, 0.42 26.85 C1.52 20.1, 5.9 12.27, 11.07 7.79 C16.25 3.32, 27.98 1.3, 31.47 0 C34.96 -1.29, 31.91 -0.11, 32 0 C32.09 0.11, 32 0.11, 32 0.64 M32 0 C38.5 -0.41, 47.28 3.06, 52.52 7.45 C57.77 11.84, 62.28 19.59, 63.49 26.33 C64.71 33.06, 63.19 41.9, 59.8 47.85 C56.41 53.79, 49.58 59.6, 43.17 61.99 C36.76 64.38, 27.78 64.45, 21.33 62.17 C14.88 59.89, 7.95 54.19, 4.47 48.31 C0.98 42.42, -0.68 33.6, 0.42 26.85 C1.52 20.1, 5.9 12.27, 11.07 7.79 C16.25 3.32, 27.98 1.3, 31.47 0 C34.96 -1.29, 31.91 -0.11, 32 0 C32.09 0.11, 32 0.11, 32 0.64" stroke="#000000" stroke-width="1" fill="none"></path></g><g transform="translate(339.6322021484375 76.64666748046875) rotate(0 22 11.5)"><text x="22" y="18" font-family="Helvetica, Segoe UI Emoji" font-size="20px" fill="#ffffff" text-anchor="middle" style="white-space: pre;" direction="ltr">C.X3</text></g><g stroke-linecap="round" transform="translate(116.86077880859375 56.14666748046875) rotate(0 32 32)"><path d="M32 0 C38.5 -0.41, 47.28 3.06, 52.52 7.45 C57.77 11.84, 62.28 19.59, 63.49 26.33 C64.71 33.06, 63.19 41.9, 59.8 47.85 C56.41 53.79, 49.58 59.6, 43.17 61.99 C36.76 64.38, 27.78 64.45, 21.33 62.17 C14.88 59.89, 7.95 54.19, 4.47 48.31 C0.98 42.42, -0.68 33.6, 0.42 26.85 C1.52 20.1, 5.9 12.27, 11.07 7.79 C16.25 3.32, 27.98 1.3, 31.47 0 C34.96 -1.29, 31.91 -0.11, 32 0 C32.09 0.11, 32 0.11, 32 0.64 M32 0 C38.5 -0.41, 47.28 3.06, 52.52 7.45 C57.77 11.84, 62.28 19.59, 63.49 26.33 C64.71 33.06, 63.19 41.9, 59.8 47.85 C56.41 53.79, 49.58 59.6, 43.17 61.99 C36.76 64.38, 27.78 64.45, 21.33 62.17 C14.88 59.89, 7.95 54.19, 4.47 48.31 C0.98 42.42, -0.68 33.6, 0.42 26.85 C1.52 20.1, 5.9 12.27, 11.07 7.79 C16.25 3.32, 27.98 1.3, 31.47 0 C34.96 -1.29, 31.91 -0.11, 32 0 C32.09 0.11, 32 0.11, 32 0.64" stroke="none" stroke-width="0" fill="#000000"></path><path d="M32 0 C38.5 -0.41, 47.28 3.06, 52.52 7.45 C57.77 11.84, 62.28 19.59, 63.49 26.33 C64.71 33.06, 63.19 41.9, 59.8 47.85 C56.41 53.79, 49.58 59.6, 43.17 61.99 C36.76 64.38, 27.78 64.45, 21.33 62.17 C14.88 59.89, 7.95 54.19, 4.47 48.31 C0.98 42.42, -0.68 33.6, 0.42 26.85 C1.52 20.1, 5.9 12.27, 11.07 7.79 C16.25 3.32, 27.98 1.3, 31.47 0 C34.96 -1.29, 31.91 -0.11, 32 0 C32.09 0.11, 32 0.11, 32 0.64 M32 0 C38.5 -0.41, 47.28 3.06, 52.52 7.45 C57.77 11.84, 62.28 19.59, 63.49 26.33 C64.71 33.06, 63.19 41.9, 59.8 47.85 C56.41 53.79, 49.58 59.6, 43.17 61.99 C36.76 64.38, 27.78 64.45, 21.33 62.17 C14.88 59.89, 7.95 54.19, 4.47 48.31 C0.98 42.42, -0.68 33.6, 0.42 26.85 C1.52 20.1, 5.9 12.27, 11.07 7.79 C16.25 3.32, 27.98 1.3, 31.47 0 C34.96 -1.29, 31.91 -0.11, 32 0 C32.09 0.11, 32 0.11, 32 0.64" stroke="#000000" stroke-width="1" fill="none"></path></g><g stroke-linecap="round" transform="translate(45.8671875 55.20233154296875) rotate(0 32 32)"><path d="M32 0 C38.5 -0.41, 47.28 3.06, 52.52 7.45 C57.77 11.84, 62.28 19.59, 63.49 26.33 C64.71 33.06, 63.19 41.9, 59.8 47.85 C56.41 53.79, 49.58 59.6, 43.17 61.99 C36.76 64.38, 27.78 64.45, 21.33 62.17 C14.88 59.89, 7.95 54.19, 4.47 48.31 C0.98 42.42, -0.68 33.6, 0.42 26.85 C1.52 20.1, 5.9 12.27, 11.07 7.79 C16.25 3.32, 27.98 1.3, 31.47 0 C34.96 -1.29, 31.91 -0.11, 32 0 C32.09 0.11, 32 0.11, 32 0.64 M32 0 C38.5 -0.41, 47.28 3.06, 52.52 7.45 C57.77 11.84, 62.28 19.59, 63.49 26.33 C64.71 33.06, 63.19 41.9, 59.8 47.85 C56.41 53.79, 49.58 59.6, 43.17 61.99 C36.76 64.38, 27.78 64.45, 21.33 62.17 C14.88 59.89, 7.95 54.19, 4.47 48.31 C0.98 42.42, -0.68 33.6, 0.42 26.85 C1.52 20.1, 5.9 12.27, 11.07 7.79 C16.25 3.32, 27.98 1.3, 31.47 0 C34.96 -1.29, 31.91 -0.11, 32 0 C32.09 0.11, 32 0.11, 32 0.64" stroke="none" stroke-width="0" fill="#000000"></path><path d="M32 0 C38.5 -0.41, 47.28 3.06, 52.52 7.45 C57.77 11.84, 62.28 19.59, 63.49 26.33 C64.71 33.06, 63.19 41.9, 59.8 47.85 C56.41 53.79, 49.58 59.6, 43.17 61.99 C36.76 64.38, 27.78 64.45, 21.33 62.17 C14.88 59.89, 7.95 54.19, 4.47 48.31 C0.98 42.42, -0.68 33.6, 0.42 26.85 C1.52 20.1, 5.9 12.27, 11.07 7.79 C16.25 3.32, 27.98 1.3, 31.47 0 C34.96 -1.29, 31.91 -0.11, 32 0 C32.09 0.11, 32 0.11, 32 0.64 M32 0 C38.5 -0.41, 47.28 3.06, 52.52 7.45 C57.77 11.84, 62.28 19.59, 63.49 26.33 C64.71 33.06, 63.19 41.9, 59.8 47.85 C56.41 53.79, 49.58 59.6, 43.17 61.99 C36.76 64.38, 27.78 64.45, 21.33 62.17 C14.88 59.89, 7.95 54.19, 4.47 48.31 C0.98 42.42, -0.68 33.6, 0.42 26.85 C1.52 20.1, 5.9 12.27, 11.07 7.79 C16.25 3.32, 27.98 1.3, 31.47 0 C34.96 -1.29, 31.91 -0.11, 32 0 C32.09 0.11, 32 0.11, 32 0.64" stroke="#000000" stroke-width="1" fill="none"></path></g><g transform="translate(126.08935546875 75.64666748046875) rotate(0 21.5 11.5)"><text x="21.5" y="18" font-family="Helvetica, Segoe UI Emoji" font-size="20px" fill="#ffffff" text-anchor="middle" style="white-space: pre;" direction="ltr">A.Y4</text></g><g transform="translate(55.59576416015625 74.930908203125) rotate(0 21 11.5)"><text x="21" y="18" font-family="Helvetica, Segoe UI Emoji" font-size="20px" fill="#ffffff" text-anchor="middle" style="white-space: pre;" direction="ltr">A.Z1</text></g><g stroke-linecap="round" transform="translate(117.547119140625 171.51531982421875) rotate(0 32 32)"><path d="M32 0 C38.5 -0.41, 47.28 3.06, 52.52 7.45 C57.77 11.84, 62.28 19.59, 63.49 26.33 C64.71 33.06, 63.19 41.9, 59.8 47.85 C56.41 53.79, 49.58 59.6, 43.17 61.99 C36.76 64.38, 27.78 64.45, 21.33 62.17 C14.88 59.89, 7.95 54.19, 4.47 48.31 C0.98 42.42, -0.68 33.6, 0.42 26.85 C1.52 20.1, 5.9 12.27, 11.07 7.79 C16.25 3.32, 27.98 1.3, 31.47 0 C34.96 -1.29, 31.91 -0.11, 32 0 C32.09 0.11, 32 0.11, 32 0.64 M32 0 C38.5 -0.41, 47.28 3.06, 52.52 7.45 C57.77 11.84, 62.28 19.59, 63.49 26.33 C64.71 33.06, 63.19 41.9, 59.8 47.85 C56.41 53.79, 49.58 59.6, 43.17 61.99 C36.76 64.38, 27.78 64.45, 21.33 62.17 C14.88 59.89, 7.95 54.19, 4.47 48.31 C0.98 42.42, -0.68 33.6, 0.42 26.85 C1.52 20.1, 5.9 12.27, 11.07 7.79 C16.25 3.32, 27.98 1.3, 31.47 0 C34.96 -1.29, 31.91 -0.11, 32 0 C32.09 0.11, 32 0.11, 32 0.64" stroke="none" stroke-width="0" fill="#000000"></path><path d="M32 0 C38.5 -0.41, 47.28 3.06, 52.52 7.45 C57.77 11.84, 62.28 19.59, 63.49 26.33 C64.71 33.06, 63.19 41.9, 59.8 47.85 C56.41 53.79, 49.58 59.6, 43.17 61.99 C36.76 64.38, 27.78 64.45, 21.33 62.17 C14.88 59.89, 7.95 54.19, 4.47 48.31 C0.98 42.42, -0.68 33.6, 0.42 26.85 C1.52 20.1, 5.9 12.27, 11.07 7.79 C16.25 3.32, 27.98 1.3, 31.47 0 C34.96 -1.29, 31.91 -0.11, 32 0 C32.09 0.11, 32 0.11, 32 0.64 M32 0 C38.5 -0.41, 47.28 3.06, 52.52 7.45 C57.77 11.84, 62.28 19.59, 63.49 26.33 C64.71 33.06, 63.19 41.9, 59.8 47.85 C56.41 53.79, 49.58 59.6, 43.17 61.99 C36.76 64.38, 27.78 64.45, 21.33 62.17 C14.88 59.89, 7.95 54.19, 4.47 48.31 C0.98 42.42, -0.68 33.6, 0.42 26.85 C1.52 20.1, 5.9 12.27, 11.07 7.79 C16.25 3.32, 27.98 1.3, 31.47 0 C34.96 -1.29, 31.91 -0.11, 32 0 C32.09 0.11, 32 0.11, 32 0.64" stroke="#000000" stroke-width="1" fill="none"></path></g><g transform="translate(125.5899658203125 191.92962646484375) rotate(0 21.5 11.5)"><text x="21.5" y="18" font-family="Helvetica, Segoe UI Emoji" font-size="20px" fill="#ffffff" text-anchor="middle" style="white-space: pre;" direction="ltr">A.Y2</text></g><g stroke-linecap="round" transform="translate(73.964599609375 286.39508056640625) rotate(0 32 32)"><path d="M32 0 C38.5 -0.41, 47.28 3.06, 52.52 7.45 C57.77 11.84, 62.28 19.59, 63.49 26.33 C64.71 33.06, 63.19 41.9, 59.8 47.85 C56.41 53.79, 49.58 59.6, 43.17 61.99 C36.76 64.38, 27.78 64.45, 21.33 62.17 C14.88 59.89, 7.95 54.19, 4.47 48.31 C0.98 42.42, -0.68 33.6, 0.42 26.85 C1.52 20.1, 5.9 12.27, 11.07 7.79 C16.25 3.32, 27.98 1.3, 31.47 0 C34.96 -1.29, 31.91 -0.11, 32 0 C32.09 0.11, 32 0.11, 32 0.64 M32 0 C38.5 -0.41, 47.28 3.06, 52.52 7.45 C57.77 11.84, 62.28 19.59, 63.49 26.33 C64.71 33.06, 63.19 41.9, 59.8 47.85 C56.41 53.79, 49.58 59.6, 43.17 61.99 C36.76 64.38, 27.78 64.45, 21.33 62.17 C14.88 59.89, 7.95 54.19, 4.47 48.31 C0.98 42.42, -0.68 33.6, 0.42 26.85 C1.52 20.1, 5.9 12.27, 11.07 7.79 C16.25 3.32, 27.98 1.3, 31.47 0 C34.96 -1.29, 31.91 -0.11, 32 0 C32.09 0.11, 32 0.11, 32 0.64" stroke="none" stroke-width="0" fill="#000000"></path><path d="M32 0 C38.5 -0.41, 47.28 3.06, 52.52 7.45 C57.77 11.84, 62.28 19.59, 63.49 26.33 C64.71 33.06, 63.19 41.9, 59.8 47.85 C56.41 53.79, 49.58 59.6, 43.17 61.99 C36.76 64.38, 27.78 64.45, 21.33 62.17 C14.88 59.89, 7.95 54.19, 4.47 48.31 C0.98 42.42, -0.68 33.6, 0.42 26.85 C1.52 20.1, 5.9 12.27, 11.07 7.79 C16.25 3.32, 27.98 1.3, 31.47 0 C34.96 -1.29, 31.91 -0.11, 32 0 C32.09 0.11, 32 0.11, 32 0.64 M32 0 C38.5 -0.41, 47.28 3.06, 52.52 7.45 C57.77 11.84, 62.28 19.59, 63.49 26.33 C64.71 33.06, 63.19 41.9, 59.8 47.85 C56.41 53.79, 49.58 59.6, 43.17 61.99 C36.76 64.38, 27.78 64.45, 21.33 62.17 C14.88 59.89, 7.95 54.19, 4.47 48.31 C0.98 42.42, -0.68 33.6, 0.42 26.85 C1.52 20.1, 5.9 12.27, 11.07 7.79 C16.25 3.32, 27.98 1.3, 31.47 0 C34.96 -1.29, 31.91 -0.11, 32 0 C32.09 0.11, 32 0.11, 32 0.64" stroke="#000000" stroke-width="1" fill="none"></path></g><g transform="translate(85.67657470703125 305.82958984375) rotate(0 21.5 11.5)"><text x="21.5" y="18" font-family="Helvetica, Segoe UI Emoji" font-size="20px" fill="#ffffff" text-anchor="middle" style="white-space: pre;" direction="ltr">A.X1</text></g><g stroke-linecap="round" transform="translate(223.6322021484375 56.14666748046875) rotate(0 32 32)"><path d="M32 0 C38.5 -0.41, 47.28 3.06, 52.52 7.45 C57.77 11.84, 62.28 19.59, 63.49 26.33 C64.71 33.06, 63.19 41.9, 59.8 47.85 C56.41 53.79, 49.58 59.6, 43.17 61.99 C36.76 64.38, 27.78 64.45, 21.33 62.17 C14.88 59.89, 7.95 54.19, 4.47 48.31 C0.98 42.42, -0.68 33.6, 0.42 26.85 C1.52 20.1, 5.9 12.27, 11.07 7.79 C16.25 3.32, 27.98 1.3, 31.47 0 C34.96 -1.29, 31.91 -0.11, 32 0 C32.09 0.11, 32 0.11, 32 0.64 M32 0 C38.5 -0.41, 47.28 3.06, 52.52 7.45 C57.77 11.84, 62.28 19.59, 63.49 26.33 C64.71 33.06, 63.19 41.9, 59.8 47.85 C56.41 53.79, 49.58 59.6, 43.17 61.99 C36.76 64.38, 27.78 64.45, 21.33 62.17 C14.88 59.89, 7.95 54.19, 4.47 48.31 C0.98 42.42, -0.68 33.6, 0.42 26.85 C1.52 20.1, 5.9 12.27, 11.07 7.79 C16.25 3.32, 27.98 1.3, 31.47 0 C34.96 -1.29, 31.91 -0.11, 32 0 C32.09 0.11, 32 0.11, 32 0.64" stroke="none" stroke-width="0" fill="#000000"></path><path d="M32 0 C38.5 -0.41, 47.28 3.06, 52.52 7.45 C57.77 11.84, 62.28 19.59, 63.49 26.33 C64.71 33.06, 63.19 41.9, 59.8 47.85 C56.41 53.79, 49.58 59.6, 43.17 61.99 C36.76 64.38, 27.78 64.45, 21.33 62.17 C14.88 59.89, 7.95 54.19, 4.47 48.31 C0.98 42.42, -0.68 33.6, 0.42 26.85 C1.52 20.1, 5.9 12.27, 11.07 7.79 C16.25 3.32, 27.98 1.3, 31.47 0 C34.96 -1.29, 31.91 -0.11, 32 0 C32.09 0.11, 32 0.11, 32 0.64 M32 0 C38.5 -0.41, 47.28 3.06, 52.52 7.45 C57.77 11.84, 62.28 19.59, 63.49 26.33 C64.71 33.06, 63.19 41.9, 59.8 47.85 C56.41 53.79, 49.58 59.6, 43.17 61.99 C36.76 64.38, 27.78 64.45, 21.33 62.17 C14.88 59.89, 7.95 54.19, 4.47 48.31 C0.98 42.42, -0.68 33.6, 0.42 26.85 C1.52 20.1, 5.9 12.27, 11.07 7.79 C16.25 3.32, 27.98 1.3, 31.47 0 C34.96 -1.29, 31.91 -0.11, 32 0 C32.09 0.11, 32 0.11, 32 0.64" stroke="#000000" stroke-width="1" fill="none"></path></g><g transform="translate(234.1322021484375 77.01812744140625) rotate(0 21.5 11.5)"><text x="21.5" y="18" font-family="Helvetica, Segoe UI Emoji" font-size="20px" fill="#ffffff" text-anchor="middle" style="white-space: pre;" direction="ltr">B.X2</text></g><g stroke-linecap="round" transform="translate(223.6322021484375 169.64666748046875) rotate(0 32 32)"><path d="M32 0 C38.5 -0.41, 47.28 3.06, 52.52 7.45 C57.77 11.84, 62.28 19.59, 63.49 26.33 C64.71 33.06, 63.19 41.9, 59.8 47.85 C56.41 53.79, 49.58 59.6, 43.17 61.99 C36.76 64.38, 27.78 64.45, 21.33 62.17 C14.88 59.89, 7.95 54.19, 4.47 48.31 C0.98 42.42, -0.68 33.6, 0.42 26.85 C1.52 20.1, 5.9 12.27, 11.07 7.79 C16.25 3.32, 27.98 1.3, 31.47 0 C34.96 -1.29, 31.91 -0.11, 32 0 C32.09 0.11, 32 0.11, 32 0.64 M32 0 C38.5 -0.41, 47.28 3.06, 52.52 7.45 C57.77 11.84, 62.28 19.59, 63.49 26.33 C64.71 33.06, 63.19 41.9, 59.8 47.85 C56.41 53.79, 49.58 59.6, 43.17 61.99 C36.76 64.38, 27.78 64.45, 21.33 62.17 C14.88 59.89, 7.95 54.19, 4.47 48.31 C0.98 42.42, -0.68 33.6, 0.42 26.85 C1.52 20.1, 5.9 12.27, 11.07 7.79 C16.25 3.32, 27.98 1.3, 31.47 0 C34.96 -1.29, 31.91 -0.11, 32 0 C32.09 0.11, 32 0.11, 32 0.64" stroke="none" stroke-width="0" fill="#000000"></path><path d="M32 0 C38.5 -0.41, 47.28 3.06, 52.52 7.45 C57.77 11.84, 62.28 19.59, 63.49 26.33 C64.71 33.06, 63.19 41.9, 59.8 47.85 C56.41 53.79, 49.58 59.6, 43.17 61.99 C36.76 64.38, 27.78 64.45, 21.33 62.17 C14.88 59.89, 7.95 54.19, 4.47 48.31 C0.98 42.42, -0.68 33.6, 0.42 26.85 C1.52 20.1, 5.9 12.27, 11.07 7.79 C16.25 3.32, 27.98 1.3, 31.47 0 C34.96 -1.29, 31.91 -0.11, 32 0 C32.09 0.11, 32 0.11, 32 0.64 M32 0 C38.5 -0.41, 47.28 3.06, 52.52 7.45 C57.77 11.84, 62.28 19.59, 63.49 26.33 C64.71 33.06, 63.19 41.9, 59.8 47.85 C56.41 53.79, 49.58 59.6, 43.17 61.99 C36.76 64.38, 27.78 64.45, 21.33 62.17 C14.88 59.89, 7.95 54.19, 4.47 48.31 C0.98 42.42, -0.68 33.6, 0.42 26.85 C1.52 20.1, 5.9 12.27, 11.07 7.79 C16.25 3.32, 27.98 1.3, 31.47 0 C34.96 -1.29, 31.91 -0.11, 32 0 C32.09 0.11, 32 0.11, 32 0.64" stroke="#000000" stroke-width="1" fill="none"></path></g><g transform="translate(234.1322021484375 190.06097412109375) rotate(0 21.5 11.5)"><text x="21.5" y="18" font-family="Helvetica, Segoe UI Emoji" font-size="20px" fill="#ffffff" text-anchor="middle" style="white-space: pre;" direction="ltr">B.Y3</text></g><g stroke-linecap="round" transform="translate(222.6322021484375 285.14666748046875) rotate(0 32 32)"><path d="M32 0 C38.5 -0.41, 47.28 3.06, 52.52 7.45 C57.77 11.84, 62.28 19.59, 63.49 26.33 C64.71 33.06, 63.19 41.9, 59.8 47.85 C56.41 53.79, 49.58 59.6, 43.17 61.99 C36.76 64.38, 27.78 64.45, 21.33 62.17 C14.88 59.89, 7.95 54.19, 4.47 48.31 C0.98 42.42, -0.68 33.6, 0.42 26.85 C1.52 20.1, 5.9 12.27, 11.07 7.79 C16.25 3.32, 27.98 1.3, 31.47 0 C34.96 -1.29, 31.91 -0.11, 32 0 C32.09 0.11, 32 0.11, 32 0.64 M32 0 C38.5 -0.41, 47.28 3.06, 52.52 7.45 C57.77 11.84, 62.28 19.59, 63.49 26.33 C64.71 33.06, 63.19 41.9, 59.8 47.85 C56.41 53.79, 49.58 59.6, 43.17 61.99 C36.76 64.38, 27.78 64.45, 21.33 62.17 C14.88 59.89, 7.95 54.19, 4.47 48.31 C0.98 42.42, -0.68 33.6, 0.42 26.85 C1.52 20.1, 5.9 12.27, 11.07 7.79 C16.25 3.32, 27.98 1.3, 31.47 0 C34.96 -1.29, 31.91 -0.11, 32 0 C32.09 0.11, 32 0.11, 32 0.64" stroke="none" stroke-width="0" fill="#000000"></path><path d="M32 0 C38.5 -0.41, 47.28 3.06, 52.52 7.45 C57.77 11.84, 62.28 19.59, 63.49 26.33 C64.71 33.06, 63.19 41.9, 59.8 47.85 C56.41 53.79, 49.58 59.6, 43.17 61.99 C36.76 64.38, 27.78 64.45, 21.33 62.17 C14.88 59.89, 7.95 54.19, 4.47 48.31 C0.98 42.42, -0.68 33.6, 0.42 26.85 C1.52 20.1, 5.9 12.27, 11.07 7.79 C16.25 3.32, 27.98 1.3, 31.47 0 C34.96 -1.29, 31.91 -0.11, 32 0 C32.09 0.11, 32 0.11, 32 0.64 M32 0 C38.5 -0.41, 47.28 3.06, 52.52 7.45 C57.77 11.84, 62.28 19.59, 63.49 26.33 C64.71 33.06, 63.19 41.9, 59.8 47.85 C56.41 53.79, 49.58 59.6, 43.17 61.99 C36.76 64.38, 27.78 64.45, 21.33 62.17 C14.88 59.89, 7.95 54.19, 4.47 48.31 C0.98 42.42, -0.68 33.6, 0.42 26.85 C1.52 20.1, 5.9 12.27, 11.07 7.79 C16.25 3.32, 27.98 1.3, 31.47 0 C34.96 -1.29, 31.91 -0.11, 32 0 C32.09 0.11, 32 0.11, 32 0.64" stroke="#000000" stroke-width="1" fill="none"></path></g><g transform="translate(233.1322021484375 305.64666748046875) rotate(0 21.5 11.5)"><text x="21.5" y="18" font-family="Helvetica, Segoe UI Emoji" font-size="20px" fill="#ffffff" text-anchor="middle" style="white-space: pre;" direction="ltr">B.Y1</text></g><g stroke-linecap="round"><g transform="translate(137.46857206925188 234.2416717170912) rotate(0 -10.688262811578682 26.372924461146994)"><path d="M0 0 C-3.56 8.79, -17.81 43.95, -21.38 52.75 M0 0 C-3.56 8.79, -17.81 43.95, -21.38 52.75" stroke="#000000" stroke-width="2" fill="none"></path></g><g transform="translate(137.46857206925188 234.2416717170912) rotate(0 -10.688262811578682 26.372924461146994)"><path d="M-20.35 24.31 C-20.61 31.42, -20.87 38.54, -21.38 52.75 M-20.35 24.31 C-20.66 32.78, -20.96 41.25, -21.38 52.75" stroke="#000000" stroke-width="2" fill="none"></path></g><g transform="translate(137.46857206925188 234.2416717170912) rotate(0 -10.688262811578682 26.372924461146994)"><path d="M-2.31 31.62 C-7.08 36.9, -11.85 42.19, -21.38 52.75 M-2.31 31.62 C-7.99 37.91, -13.67 44.21, -21.38 52.75" stroke="#000000" stroke-width="2" fill="none"></path></g></g><g transform="translate(34.64801025390625 16.879425048828125) rotate(0 77.5 12.5)"><text x="0" y="18" font-family="Virgil, Segoe UI Emoji" font-size="20px" fill="#000000" text-anchor="start" style="white-space: pre;" direction="ltr">forked record A</text></g><g stroke-linecap="round"><g transform="translate(256.6322021484375 123.64666748046875) rotate(0 -0.7406629424360744 22.217990734847263)"><path d="M0.06 0.87 C-0.24 7.87, -0.68 35.81, -1.05 42.75 M-1.37 0.28 C-1.81 7.4, -1.23 36.94, -1.5 44.16" stroke="#000000" stroke-width="2" fill="none"></path></g><g transform="translate(256.6322021484375 123.64666748046875) rotate(0 -0.7406629424360744 22.217990734847263)"><path d="M-7.29 25.48 C-6.42 30.97, -4.2 36.91, -2.71 44.7 M-9.66 23.65 C-7.11 30.82, -3.58 37.34, -0.58 44.58" stroke="#000000" stroke-width="2" fill="none"></path></g><g transform="translate(256.6322021484375 123.64666748046875) rotate(0 -0.7406629424360744 22.217990734847263)"><path d="M7.43 25.56 C2.99 31.03, -0.11 36.94, -2.71 44.7 M5.07 23.73 C3 30.97, 1.92 37.46, -0.58 44.58" stroke="#000000" stroke-width="2" fill="none"></path></g></g><g stroke-linecap="round"><g transform="translate(255.6322021484375 235.64666748046875) rotate(0 -0.8917225756356402 23.42347758798394)"><path d="M-0.18 -0.81 C-0.16 6.75, -0.07 38.65, -0.05 46.42 M-1.74 1.37 C-1.77 9.61, -0.74 40.13, -0.49 47.66" stroke="#000000" stroke-width="2" fill="none"></path></g><g transform="translate(255.6322021484375 235.64666748046875) rotate(0 -0.8917225756356402 23.42347758798394)"><path d="M-10.6 27.43 C-7.53 33.67, -6.01 37.38, -1.98 45.86 M-10.08 26.78 C-6.09 31.88, -5.62 36.19, -0.65 47.02" stroke="#000000" stroke-width="2" fill="none"></path></g><g transform="translate(255.6322021484375 235.64666748046875) rotate(0 -0.8917225756356402 23.42347758798394)"><path d="M5.47 26.91 C3.98 33.27, 0.94 37.13, -1.98 45.86 M5.99 26.25 C5.89 31.4, 2.27 35.85, -0.65 47.02" stroke="#000000" stroke-width="2" fill="none"></path></g></g><g stroke-linecap="round"><g transform="translate(148.1494321409666 121.97279874934372) rotate(0 0.22389423007518872 23.337511805924095)"><path d="M0.94 -0.09 C0.8 7.6, 0.09 38.71, -0.03 46.27 M-0.02 -1.19 C-0.31 6.71, -0.51 39.97, -0.49 47.86" stroke="#000000" stroke-width="1" fill="none"></path></g><g transform="translate(148.1494321409666 121.97279874934372) rotate(0 0.22389423007518872 23.337511805924095)"><path d="M-8.48 27.69 C-5.25 36.05, -4.01 42.41, 0.92 47.29 M-9.2 26.12 C-7.11 32.43, -3.36 37.86, -1.2 48.14" stroke="#000000" stroke-width="1" fill="none"></path></g><g transform="translate(148.1494321409666 121.97279874934372) rotate(0 0.22389423007518872 23.337511805924095)"><path d="M7.32 27.74 C4.73 36.2, 0.15 42.54, 0.92 47.29 M6.6 26.16 C4.64 32.32, 4.35 37.74, -1.2 48.14" stroke="#000000" stroke-width="1" fill="none"></path></g></g><g stroke-linecap="round"><g transform="translate(79.54420758365973 121.34625080839021) rotate(0 9.452569010931029 82.04169734248552)"><path d="M-0.77 0.82 C2.49 28.09, 16.5 135.85, 19.68 162.91 M1.03 0.21 C4.17 27.64, 15.73 136.57, 19.02 163.87" stroke="#000000" stroke-width="1" fill="none"></path></g><g transform="translate(79.54420758365973 121.34625080839021) rotate(0 9.452569010931029 82.04169734248552)"><path d="M7.05 137.93 C7.82 143.98, 12.33 152.95, 19.11 162.6 M4.75 136.56 C8.2 143.05, 12.81 149.99, 18.19 163.09" stroke="#000000" stroke-width="1" fill="none"></path></g><g transform="translate(79.54420758365973 121.34625080839021) rotate(0 9.452569010931029 82.04169734248552)"><path d="M27.44 135.64 C21.92 142.26, 20.13 151.95, 19.11 162.6 M25.15 134.27 C23.34 141.3, 22.7 148.83, 18.19 163.09" stroke="#000000" stroke-width="1" fill="none"></path></g></g><g stroke-linecap="round" transform="translate(35.38140869140625 44.836181640625) rotate(0 75.51760864257812 41.692138671875)"><path d="M0.27 0.34 C56.97 2.73, 117.02 2.49, 149.88 -0.48 M152.8 -1.21 C152.73 29, 152.73 57.11, 149.07 82.66 M151.01 82.52 C100.33 83.67, 49.45 84.2, -1.56 84.89 M0.18 82.16 C-1.32 63.89, -0.38 44.65, 0.16 0.61" stroke="#000000" stroke-width="1.5" fill="none" stroke-dasharray="1.5 7"></path></g></svg>